<svg xmlns="http://www.w3.org/2000/svg" viewBox="0 0 64 64" width="64" height="64">
  <rect width="100%" height="100%" fill="none"/>
  <g fill="none" stroke="none">
    <path d="M32 6c-6.627 0-12 5.373-12 12 0 4.967 3.216 9.237 7.687 10.848.675.259 1.064.95.986 1.644-.132 1.18-.199 2.462-.199 3.858 0 1.1.89 2 2 2h6.052c1.11 0 2-.9 2-2 0-1.396-.067-2.678-.199-3.858-.078-.694.311-1.385.986-1.644C40.784 27.237 44 22.967 44 18c0-6.627-5.373-12-12-12z" fill="#FFD54A"/>
    <path d="M28 44h8v6a2 2 0 0 1-2 2h-4a2 2 0 0 1-2-2v-6z" fill="#B0BEC5"/>
    <rect x="27" y="50" width="10" height="4" rx="1" fill="#90A4AE"/>
    <path d="M26 36c1.5 0 2.5-2 6-2s4.5 2 6 2" stroke="#FFA000" stroke-width="2" stroke-linecap="round" fill="none"/>
  </g>
</svg>
